<?xml version="1.0" encoding="UTF-8" standalone="no"?>
<!DOCTYPE svg PUBLIC "-//W3C//DTD SVG 1.1//EN" "http://www.w3.org/Graphics/SVG/1.1/DTD/svg11.dtd">
<svg width="100%" height="100%" viewBox="0 0 8000 2000" version="1.1" xmlns="http://www.w3.org/2000/svg" xmlns:xlink="http://www.w3.org/1999/xlink" xml:space="preserve" xmlns:serif="http://www.serif.com/" style="fill-rule:evenodd;clip-rule:evenodd;stroke-linejoin:round;stroke-miterlimit:2;">
    <g transform="matrix(1.274,0,0,1.274,1093,1000)">
        <g transform="matrix(1,0,0,1,-1000,-1000)">
            <g id="Logo" transform="matrix(2.095172,0,0,1.122296,-1060.602069,-203.101498)">
                <path d="M983.5,471L1297.434,712.692L1297.434,1431.353L983.5,1673L669.566,1431.353L669.566,712.692L983.5,471ZM805.352,1100.513L742.35,1151.302L981.949,1347.328L1224.65,1150.411L1159.977,1100.513L981.949,1242.187L805.352,1100.513ZM806.904,941.91L743.902,992.698L983.5,1188.725L1226.201,991.807L1161.528,941.91L983.5,1083.583L806.904,941.91ZM983.5,636.172L740.799,831.365L983.5,1026.557L1226.201,831.365L983.5,636.172ZM806.904,1260.007L743.902,1310.796L983.5,1506.823L1226.201,1309.905L1161.528,1260.007L983.5,1401.681L806.904,1260.007Z" style="fill:white;"/>
            </g>
        </g>
    </g>
    <g transform="matrix(1,0,0,1,-1,120.5)">
        <g transform="matrix(768,0,0,768,2138.925578,1159.82)">
            <path d="M0.018,-0L0.267,-0.73L0.498,-0.73L0.755,-0L0.609,-0L0.392,-0.633L0.443,-0.611L0.318,-0.611L0.37,-0.633L0.16,-0L0.018,-0ZM0.192,-0.194L0.237,-0.314L0.532,-0.314L0.577,-0.194L0.192,-0.194Z" style="fill:white;fill-rule:nonzero;"/>
        </g>
        <g transform="matrix(768,0,0,768,2731.053578,1159.82)">
            <path d="M0.276,0.017C0.201,0.017 0.142,0.001 0.1,-0.03C0.058,-0.062 0.036,-0.105 0.034,-0.162L0.159,-0.162C0.161,-0.143 0.171,-0.126 0.19,-0.111C0.209,-0.096 0.238,-0.088 0.278,-0.088C0.311,-0.088 0.337,-0.094 0.357,-0.106C0.377,-0.118 0.387,-0.134 0.387,-0.154C0.387,-0.172 0.38,-0.187 0.364,-0.198C0.349,-0.208 0.324,-0.215 0.288,-0.219L0.24,-0.224C0.179,-0.23 0.132,-0.248 0.1,-0.276C0.067,-0.304 0.051,-0.341 0.051,-0.388C0.051,-0.425 0.06,-0.456 0.079,-0.481C0.097,-0.507 0.123,-0.526 0.156,-0.539C0.189,-0.552 0.227,-0.559 0.27,-0.559C0.337,-0.559 0.391,-0.544 0.432,-0.515C0.473,-0.485 0.495,-0.442 0.497,-0.386L0.372,-0.386C0.37,-0.405 0.361,-0.421 0.344,-0.434C0.327,-0.447 0.302,-0.454 0.269,-0.454C0.24,-0.454 0.217,-0.448 0.201,-0.437C0.185,-0.426 0.176,-0.411 0.176,-0.393C0.176,-0.376 0.183,-0.362 0.196,-0.353C0.209,-0.344 0.23,-0.337 0.26,-0.334L0.307,-0.329C0.371,-0.322 0.422,-0.305 0.458,-0.276C0.495,-0.247 0.513,-0.209 0.513,-0.16C0.513,-0.124 0.503,-0.093 0.483,-0.066C0.464,-0.04 0.436,-0.019 0.401,-0.005C0.365,0.01 0.324,0.017 0.276,0.017Z" style="fill:white;fill-rule:nonzero;"/>
        </g>
        <g transform="matrix(768,0,0,768,3152.685578,1159.82)">
            <path d="M0.276,0.017C0.201,0.017 0.142,0.001 0.1,-0.03C0.058,-0.062 0.036,-0.105 0.034,-0.162L0.159,-0.162C0.161,-0.143 0.171,-0.126 0.19,-0.111C0.209,-0.096 0.238,-0.088 0.278,-0.088C0.311,-0.088 0.337,-0.094 0.357,-0.106C0.377,-0.118 0.387,-0.134 0.387,-0.154C0.387,-0.172 0.38,-0.187 0.364,-0.198C0.349,-0.208 0.324,-0.215 0.288,-0.219L0.24,-0.224C0.179,-0.23 0.132,-0.248 0.1,-0.276C0.067,-0.304 0.051,-0.341 0.051,-0.388C0.051,-0.425 0.06,-0.456 0.079,-0.481C0.097,-0.507 0.123,-0.526 0.156,-0.539C0.189,-0.552 0.227,-0.559 0.27,-0.559C0.337,-0.559 0.391,-0.544 0.432,-0.515C0.473,-0.485 0.495,-0.442 0.497,-0.386L0.372,-0.386C0.37,-0.405 0.361,-0.421 0.344,-0.434C0.327,-0.447 0.302,-0.454 0.269,-0.454C0.24,-0.454 0.217,-0.448 0.201,-0.437C0.185,-0.426 0.176,-0.411 0.176,-0.393C0.176,-0.376 0.183,-0.362 0.196,-0.353C0.209,-0.344 0.23,-0.337 0.26,-0.334L0.307,-0.329C0.371,-0.322 0.422,-0.305 0.458,-0.276C0.495,-0.247 0.513,-0.209 0.513,-0.16C0.513,-0.124 0.503,-0.093 0.483,-0.066C0.464,-0.04 0.436,-0.019 0.401,-0.005C0.365,0.01 0.324,0.017 0.276,0.017Z" style="fill:white;fill-rule:nonzero;"/>
        </g>
        <g transform="matrix(768,0,0,768,3574.317578,1159.82)">
            <path d="M0.322,0.019C0.275,0.019 0.235,0.011 0.2,-0.005C0.165,-0.021 0.135,-0.042 0.113,-0.069C0.09,-0.096 0.072,-0.126 0.06,-0.16C0.049,-0.193 0.043,-0.227 0.043,-0.262L0.043,-0.281C0.043,-0.317 0.049,-0.352 0.06,-0.385C0.072,-0.419 0.089,-0.449 0.112,-0.475C0.135,-0.502 0.164,-0.523 0.198,-0.538C0.232,-0.554 0.271,-0.562 0.316,-0.562C0.375,-0.562 0.424,-0.549 0.463,-0.523C0.503,-0.497 0.533,-0.464 0.553,-0.422C0.573,-0.381 0.583,-0.336 0.583,-0.288L0.583,-0.238L0.102,-0.238L0.102,-0.323L0.495,-0.323L0.453,-0.281C0.453,-0.316 0.448,-0.345 0.438,-0.37C0.428,-0.395 0.412,-0.414 0.392,-0.427C0.372,-0.44 0.347,-0.447 0.316,-0.447C0.285,-0.447 0.259,-0.44 0.238,-0.426C0.216,-0.412 0.2,-0.391 0.189,-0.365C0.178,-0.339 0.173,-0.308 0.173,-0.271C0.173,-0.237 0.178,-0.206 0.189,-0.18C0.199,-0.154 0.216,-0.133 0.238,-0.118C0.26,-0.103 0.288,-0.096 0.322,-0.096C0.356,-0.096 0.383,-0.103 0.405,-0.117C0.426,-0.13 0.44,-0.147 0.446,-0.167L0.574,-0.167C0.566,-0.13 0.551,-0.097 0.528,-0.069C0.505,-0.041 0.476,-0.019 0.441,-0.004C0.406,0.011 0.367,0.019 0.322,0.019Z" style="fill:white;fill-rule:nonzero;"/>
        </g>
        <g transform="matrix(768,0,0,768,4050.477578,1159.82)">
            <path d="M0.315,0.007C0.265,0.007 0.223,0 0.191,-0.013C0.159,-0.025 0.135,-0.047 0.119,-0.078C0.103,-0.109 0.095,-0.151 0.095,-0.204L0.096,-0.696L0.226,-0.696L0.225,-0.195C0.225,-0.168 0.232,-0.148 0.246,-0.134C0.261,-0.119 0.281,-0.112 0.308,-0.112L0.393,-0.112L0.393,0.007L0.315,0.007ZM0.009,-0.441L0.009,-0.543L0.393,-0.543L0.393,-0.441L0.009,-0.441Z" style="fill:white;fill-rule:nonzero;"/>
        </g>
        <g transform="matrix(768,0,0,768,4381.485578,1159.82)">
        </g>
        <g transform="matrix(768,0,0,768,4547.373578,1159.82)">
            <path d="M0.09,-0L0.09,-0.73L0.284,-0.73L0.467,-0.294L0.485,-0.294L0.667,-0.73L0.864,-0.73L0.864,-0L0.723,-0L0.723,-0.623L0.741,-0.621L0.543,-0.149L0.399,-0.149L0.201,-0.621L0.22,-0.623L0.22,-0L0.09,-0Z" style="fill:white;fill-rule:nonzero;"/>
        </g>
        <g transform="matrix(768,0,0,768,5280.045578,1159.82)">
            <path d="M0.322,0.019C0.275,0.019 0.235,0.011 0.2,-0.005C0.165,-0.021 0.135,-0.042 0.113,-0.069C0.09,-0.096 0.072,-0.126 0.06,-0.16C0.049,-0.193 0.043,-0.227 0.043,-0.262L0.043,-0.281C0.043,-0.317 0.049,-0.352 0.06,-0.385C0.072,-0.419 0.089,-0.449 0.112,-0.475C0.135,-0.502 0.164,-0.523 0.198,-0.538C0.232,-0.554 0.271,-0.562 0.316,-0.562C0.375,-0.562 0.424,-0.549 0.463,-0.523C0.503,-0.497 0.533,-0.464 0.553,-0.422C0.573,-0.381 0.583,-0.336 0.583,-0.288L0.583,-0.238L0.102,-0.238L0.102,-0.323L0.495,-0.323L0.453,-0.281C0.453,-0.316 0.448,-0.345 0.438,-0.37C0.428,-0.395 0.412,-0.414 0.392,-0.427C0.372,-0.44 0.347,-0.447 0.316,-0.447C0.285,-0.447 0.259,-0.44 0.238,-0.426C0.216,-0.412 0.2,-0.391 0.189,-0.365C0.178,-0.339 0.173,-0.308 0.173,-0.271C0.173,-0.237 0.178,-0.206 0.189,-0.18C0.199,-0.154 0.216,-0.133 0.238,-0.118C0.26,-0.103 0.288,-0.096 0.322,-0.096C0.356,-0.096 0.383,-0.103 0.405,-0.117C0.426,-0.13 0.44,-0.147 0.446,-0.167L0.574,-0.167C0.566,-0.13 0.551,-0.097 0.528,-0.069C0.505,-0.041 0.476,-0.019 0.441,-0.004C0.406,0.011 0.367,0.019 0.322,0.019Z" style="fill:white;fill-rule:nonzero;"/>
        </g>
        <g transform="matrix(768,0,0,768,5756.205578,1159.82)">
            <path d="M0.079,-0L0.079,-0.543L0.189,-0.543L0.189,-0.309L0.179,-0.309C0.179,-0.364 0.186,-0.41 0.2,-0.447C0.214,-0.484 0.235,-0.512 0.263,-0.531C0.29,-0.55 0.325,-0.56 0.366,-0.56L0.372,-0.56C0.414,-0.56 0.448,-0.55 0.476,-0.531C0.504,-0.512 0.524,-0.484 0.538,-0.447C0.552,-0.41 0.559,-0.364 0.559,-0.309L0.524,-0.309C0.524,-0.364 0.531,-0.41 0.545,-0.447C0.559,-0.484 0.58,-0.512 0.608,-0.531C0.636,-0.55 0.671,-0.56 0.712,-0.56L0.718,-0.56C0.76,-0.56 0.795,-0.55 0.823,-0.531C0.851,-0.512 0.872,-0.484 0.887,-0.447C0.901,-0.41 0.908,-0.364 0.908,-0.309L0.908,-0L0.769,-0L0.769,-0.323C0.769,-0.357 0.76,-0.384 0.743,-0.405C0.725,-0.425 0.701,-0.435 0.669,-0.435C0.637,-0.435 0.611,-0.425 0.592,-0.404C0.573,-0.383 0.563,-0.354 0.563,-0.319L0.563,-0L0.424,-0L0.424,-0.323C0.424,-0.357 0.415,-0.384 0.398,-0.405C0.38,-0.425 0.356,-0.435 0.324,-0.435C0.292,-0.435 0.266,-0.425 0.247,-0.404C0.228,-0.383 0.218,-0.354 0.218,-0.319L0.218,-0L0.079,-0Z" style="fill:white;fill-rule:nonzero;"/>
        </g>
        <g transform="matrix(768,0,0,768,6507.309578,1159.82)">
            <path d="M0.34,0.019C0.292,0.019 0.25,0.011 0.213,-0.004C0.176,-0.019 0.145,-0.04 0.12,-0.066C0.095,-0.092 0.075,-0.122 0.062,-0.155C0.05,-0.189 0.043,-0.224 0.043,-0.26L0.043,-0.281C0.043,-0.318 0.05,-0.353 0.063,-0.387C0.077,-0.421 0.096,-0.451 0.122,-0.477C0.148,-0.503 0.179,-0.524 0.215,-0.539C0.252,-0.554 0.294,-0.562 0.34,-0.562C0.386,-0.562 0.427,-0.554 0.464,-0.539C0.5,-0.524 0.531,-0.503 0.557,-0.477C0.583,-0.451 0.602,-0.421 0.616,-0.387C0.629,-0.353 0.636,-0.318 0.636,-0.281L0.636,-0.26C0.636,-0.224 0.63,-0.189 0.617,-0.155C0.604,-0.122 0.584,-0.092 0.559,-0.066C0.534,-0.04 0.503,-0.019 0.466,-0.004C0.429,0.011 0.387,0.019 0.34,0.019ZM0.34,-0.1C0.373,-0.1 0.402,-0.107 0.425,-0.122C0.449,-0.137 0.467,-0.157 0.479,-0.183C0.491,-0.209 0.497,-0.238 0.497,-0.271C0.497,-0.304 0.491,-0.333 0.478,-0.359C0.466,-0.385 0.448,-0.405 0.424,-0.42C0.401,-0.435 0.373,-0.443 0.34,-0.443C0.307,-0.443 0.279,-0.435 0.255,-0.42C0.231,-0.405 0.213,-0.385 0.201,-0.359C0.188,-0.333 0.182,-0.304 0.182,-0.271C0.182,-0.238 0.188,-0.209 0.2,-0.183C0.212,-0.157 0.23,-0.137 0.254,-0.122C0.277,-0.107 0.306,-0.1 0.34,-0.1Z" style="fill:white;fill-rule:nonzero;"/>
        </g>
        <g transform="matrix(768,0,0,768,7028.781578,1159.82)">
            <path d="M0.079,-0L0.079,-0.543L0.189,-0.543L0.189,-0.313L0.186,-0.313C0.186,-0.391 0.203,-0.45 0.236,-0.49C0.269,-0.53 0.318,-0.55 0.383,-0.55L0.403,-0.55L0.403,-0.429L0.365,-0.429C0.318,-0.429 0.282,-0.416 0.256,-0.391C0.231,-0.366 0.218,-0.33 0.218,-0.283L0.218,-0L0.079,-0Z" style="fill:white;fill-rule:nonzero;"/>
        </g>
        <g transform="matrix(768,0,0,768,7362.093578,1159.82)">
            <path d="M0.063,0.214L0.063,0.095L0.165,0.095C0.184,0.095 0.2,0.093 0.213,0.088C0.226,0.083 0.237,0.075 0.246,0.064C0.254,0.053 0.261,0.037 0.266,0.018L0.412,-0.543L0.545,-0.543L0.384,0.049C0.373,0.089 0.358,0.121 0.339,0.145C0.32,0.17 0.295,0.187 0.265,0.198C0.234,0.209 0.197,0.214 0.152,0.214L0.063,0.214ZM0.232,-0.012L0.232,-0.122L0.348,-0.122L0.348,-0.012L0.232,-0.012ZM0.185,-0.012L0.009,-0.543L0.149,-0.543L0.316,-0.012L0.185,-0.012Z" style="fill:white;fill-rule:nonzero;"/>
        </g>
        <g transform="matrix(768,0,0,768,7793.709578,1159.82)">
        </g>
    </g>
</svg>
