<svg xmlns="http://www.w3.org/2000/svg" width="28" height="28" viewBox="0 0 28 28"><path fill="#f3fbff" d="M10.875 2c.895 0 1.719.304 2.375.814V9h-2.38a2.248 2.248 0 0 0-4.37.75a2.25 2.25 0 0 0 4.37.75h2.38v14.51a4.18 4.18 0 0 1-2.706.99a4.206 4.206 0 0 1-4.112-3.325l-.04-.19A4.748 4.748 0 0 1 3.289 14.5H6.75c.69 0 1.25.56 1.25 1.25v.38a2.248 2.248 0 0 0 .75 4.37a2.25 2.25 0 0 0 .75-4.37v-.38A2.75 2.75 0 0 0 6.75 13H4.148a4.5 4.5 0 0 1 2.868-7.474A3.874 3.874 0 0 1 10.876 2m6.25 0a3.874 3.874 0 0 1 3.858 3.526a4.5 4.5 0 0 1 2.36 7.96a4.75 4.75 0 0 1-1.735 8.998l-.04.19A4.206 4.206 0 0 1 17.456 26a4.18 4.18 0 0 1-2.706-.99V19h2.5A2.75 2.75 0 0 0 20 16.25v-.382a2.248 2.248 0 0 0-.75-4.368a2.248 2.248 0 0 0-.75 4.368v.382c0 .69-.56 1.25-1.25 1.25h-2.5V2.814A3.86 3.86 0 0 1 17.125 2M8.75 17.5a.75.75 0 1 1 0 1.5a.75.75 0 0 1 0-1.5m10.5-4.5a.75.75 0 1 1 0 1.5a.75.75 0 0 1 0-1.5M8.75 9a.75.75 0 1 1 0 1.5a.75.75 0 0 1 0-1.5"/></svg>